Toy Story 3 (2010)       
  
 Vanaf 26 oktober op video
  Verenigde Staten
Verenigde Staten
Animatie / Avontuur
103 minuten

geregisseerd door Lee Unkrich
met de stemmen van Tom Hanks, Tim Allen en Joan Cusack

Wanneer Andy gaat studeren en op kamers gaat, komen Woody, Buzz en de rest van hun speelgoedvrienden bij dagopvang Sunnyside terecht. Dit lijkt in eerste instantie een gezellige plek, onder leiding van de vriendelijke speelgoedbeer Lotso. Maar het dagverblijf blijkt helemaal niet zo prettig en dus willen Woody en de rest zo snel mogelijk weg. Maar het schijnt nog niet zo eenvoudig te zijn om het dagverblijf te verlaten.

English

Storyline
Woody, Buzz and the whole gang are back. As their owner Andy prepares to depart for college, his loyal toys find themselves in daycare where untamed tots with their sticky little fingers do not play nice. So, it's all for one and one for all as they join Barbie's counterpart Ken, a thespian hedgehog named Mr. Pricklepants and a pink, strawberry-scented teddy bear called Lots-o'-Huggin' Bear to plan their great escape. 





RELEASE: Toy.Story.3.2010.R5.XviD.AC3-NYDIC

File Size 1.46GB

SOURCE: DVD9 R5 

GENRE: Infantil

Video: 1721 kbps XviD

AUDiO: 384 kbps AC3 6 chnls

RESOLUTION: 720 x 384

RUNTiME: 1h 38mn

LANGUAGE: ENGLiSH

SUBTiTLES: Dutch srt

Nu dan de R5 versie

De Video en Audio zijn gewoon prima!!
Thanks : Hannes3 


Spotinformatie 
Categorie : Beeld 
Formaat : DivX 
Bron : R5
 
Ondertitels : Nederlands (extern)
 
Genre : Avontuur
Animatie
Fantasiefilm
Kinderfilm

Format                           : AVI
Format/Info                      : Audio Video Interleave
File size                        : 1.46 GiB
Duration                         : 1h 38mn
Overall bit rate                 : 2 115 Kbps
Writing application              : VirtualDubMod 1.5.10.2 (build 2540/release)
Writing library                  : VirtualDubMod build 2540/release

Video
ID                               : 0
Format                           : MPEG-4 Visual
Format profile                   : Streaming Video@L1
Format settings, BVOP            : Yes
Format settings, QPel            : No
Format settings, GMC             : No warppoints
Format settings, Matrix          : Custom
Codec ID                         : XVID
Codec ID/Hint                    : XviD
Duration                         : 1h 38mn
Bit rate                         : 1 721 Kbps
Width                            : 720 pixels
Height                           : 400 pixels
Display aspect ratio             : 16/9
Frame rate                       : 25.000 fps
Resolution                       : 24 bits
Colorimetry                      : 4:2:0
Scan type                        : Progressive
Bits/(Pixel*Frame)               : 0.239
Stream size                      : 1.19 GiB (81%)
Writing library                  : XviD 1.2.1 (UTC 2008-12-04)

Audio
ID                               : 1
Format                           : AC-3
Format/Info                      : Audio Coding 3
Codec ID                         : 2000
Duration                         : 1h 38mn
Bit rate mode                    : Constant
Bit rate                         : 384 Kbps
Channel(s)                       : 6 channels
Channel positions                : Front: L C R, Surround: L R, LFE
Sampling rate                    : 48.0 KHz
Stream size                      : 272 MiB (18%)
Alignment                        : Split accross interleaves
Interleave, duration             : 40 ms (1.00 video frame)
Interleave, preload duration     : 500 ms


 
Weblink :  http://www.moviemeter.nl/film/49471
Weblink :  http://www.imdb.com/title/tt0435761 

*****************************************

Brought to you by 
2Lions Team

meer zien??
Kom dan eens kijken op ons Forum 
                     
http://www.2lions-site.nl  

2Lions the site to be for all your Dutch MOVIES and more

******************************************


DON T HIT AND RUN Niet gelijk afhaken als de FILM binnen is blijf seeden. 

Don`t quit after you finished the download, but keep seeding


There are fake torrents from uploaders who use our team name.
Those are not ours, or members from our team.
We 2Lions-Team are not responsible for the fake posts on our name

Wij 2Lions-Team zijn niet verantwoordelijk voor die zieke FAKE posten die op onze naam worden gedaan

Please check our site !!!
To the fakers Get a Live
 


 
